<svg width="97" height="87" viewBox="0 0 97 87" fill="none" xmlns="http://www.w3.org/2000/svg">
<path d="M47.9018 86.5749C69.8846 86.5749 87.7052 85.3843 87.7052 83.9157C87.7052 82.4471 69.8846 81.2565 47.9018 81.2565C25.9189 81.2565 8.0983 82.4471 8.0983 83.9157C8.0983 85.3843 25.9189 86.5749 47.9018 86.5749Z" fill="#92E3A9"/>
<path opacity="0.5" d="M47.9018 86.5749C69.8846 86.5749 87.7052 85.3843 87.7052 83.9157C87.7052 82.4471 69.8846 81.2565 47.9018 81.2565C25.9189 81.2565 8.0983 82.4471 8.0983 83.9157C8.0983 85.3843 25.9189 86.5749 47.9018 86.5749Z" fill="white"/>
<path d="M38.7165 13.0395H34.9065V13.8709V18.7532V19.5845H42.9869V13.8709H38.9873L38.7165 13.0395Z" fill="#92E3A9"/>
<path d="M38.7165 25.496H34.9065V26.3274V31.2097V32.041H42.9869V26.3274H38.9873L38.7165 25.496Z" fill="#92E3A9"/>
<path d="M38.7165 37.9519H34.9065V38.7832V43.6656V44.4969H42.9869V38.7832H38.9873L38.7165 37.9519Z" fill="#92E3A9"/>
<path d="M38.7165 50.4104H34.9065V51.2417V56.124V56.9554H42.9869V51.2417H38.9873L38.7165 50.4104Z" fill="#92E3A9"/>
<path d="M38.7165 62.8662H34.9065V63.6976V68.5799V69.4112H42.9869V63.6976H38.9873L38.7165 62.8662Z" fill="#92E3A9"/>
<path d="M63.131 13.0393H59.3237V13.8706V18.753V19.5843H67.4013V13.8706H63.4018L63.131 13.0393Z" fill="#92E3A9"/>
<path d="M78.9722 13.8706L78.7014 13.0393H74.8941V13.8706V18.753V19.5843H82.9718V13.8706H78.9722Z" fill="#92E3A9"/>
<path d="M63.131 25.496H59.3237V26.3274V31.2097V32.041H67.4013V26.3274H63.4018L63.131 25.496Z" fill="#92E3A9"/>
<path d="M78.7014 37.9519H74.8941V38.7832V43.6656V44.4969H82.9718V38.7832H78.9722L78.7014 37.9519Z" fill="#92E3A9"/>
<path d="M78.7014 25.496H74.8941V26.3274V31.2097V32.041H82.9718V26.3274H78.9722L78.7014 25.496Z" fill="#92E3A9"/>
<path d="M63.131 37.9519H59.3237V38.7832V43.6656V44.4969H67.4013V38.7832H63.4018L63.131 37.9519Z" fill="#92E3A9"/>
<path d="M63.131 50.4104H59.3237V51.2417V56.124V56.9554H67.4013V51.2417H63.4018L63.131 50.4104Z" fill="#92E3A9"/>
<path d="M78.7014 50.4104H74.8941V51.2417V56.124V56.9554H82.9718V51.2417H78.9722L78.7014 50.4104Z" fill="#92E3A9"/>
<path d="M63.131 62.8662H59.3237V63.6976V68.5799V69.4112H67.4013V63.6976H63.4018L63.131 62.8662Z" fill="#92E3A9"/>
<path d="M78.7014 62.8662H74.8941V63.6976V68.5799V69.4112H82.9718V63.6976H78.9722L78.7014 62.8662Z" fill="#92E3A9"/>
<g opacity="0.5">
<path d="M38.7165 13.0395H34.9065V13.8709V18.7532V19.5845H42.9869V13.8709H38.9873L38.7165 13.0395Z" fill="white"/>
<path d="M38.7165 25.496H34.9065V26.3274V31.2097V32.041H42.9869V26.3274H38.9873L38.7165 25.496Z" fill="white"/>
<path d="M38.7165 37.9519H34.9065V38.7832V43.6656V44.4969H42.9869V38.7832H38.9873L38.7165 37.9519Z" fill="white"/>
<path d="M38.7165 50.4104H34.9065V51.2417V56.124V56.9554H42.9869V51.2417H38.9873L38.7165 50.4104Z" fill="white"/>
<path d="M38.7165 62.8662H34.9065V63.6976V68.5799V69.4112H42.9869V63.6976H38.9873L38.7165 62.8662Z" fill="white"/>
<path d="M63.131 13.0393H59.3237V13.8706V18.753V19.5843H67.4013V13.8706H63.4018L63.131 13.0393Z" fill="white"/>
<path d="M78.9722 13.8706L78.7014 13.0393H74.8941V13.8706V18.753V19.5843H82.9718V13.8706H78.9722Z" fill="white"/>
<path d="M63.131 25.496H59.3237V26.3274V31.2097V32.041H67.4013V26.3274H63.4018L63.131 25.496Z" fill="white"/>
<path d="M78.7014 37.9519H74.8941V38.7832V43.6656V44.4969H82.9718V38.7832H78.9722L78.7014 37.9519Z" fill="white"/>
<path d="M78.7014 25.496H74.8941V26.3274V31.2097V32.041H82.9718V26.3274H78.9722L78.7014 25.496Z" fill="white"/>
<path d="M63.131 37.9519H59.3237V38.7832V43.6656V44.4969H67.4013V38.7832H63.4018L63.131 37.9519Z" fill="white"/>
<path d="M63.131 50.4104H59.3237V51.2417V56.124V56.9554H67.4013V51.2417H63.4018L63.131 50.4104Z" fill="white"/>
<path d="M78.7014 50.4104H74.8941V51.2417V56.124V56.9554H82.9718V51.2417H78.9722L78.7014 50.4104Z" fill="white"/>
<path d="M63.131 62.8662H59.3237V63.6976V68.5799V69.4112H67.4013V63.6976H63.4018L63.131 62.8662Z" fill="white"/>
<path d="M78.7014 62.8662H74.8941V63.6976V68.5799V69.4112H82.9718V63.6976H78.9722L78.7014 62.8662Z" fill="white"/>
</g>
<path d="M17.3322 31.6593C17.3322 31.6593 17.0885 33.3301 17.8955 34.4728C18.7024 35.6155 24.5894 40.4031 25.1147 40.6793C25.6401 40.9555 27.8985 40.3652 27.2161 38.5401C26.5337 36.715 21.5755 32.8535 20.5817 31.8082C19.5879 30.763 18.6618 30.9146 18.6618 30.9146" fill="#92E3A9"/>
<path d="M17.3322 31.6593C17.3322 31.6593 17.0885 33.3301 17.8955 34.4728C18.7024 35.6155 24.5894 40.4031 25.1147 40.6793C25.6401 40.9555 27.8985 40.3652 27.2161 38.5401C26.5337 36.715 21.5755 32.8535 20.5817 31.8082C19.5879 30.763 18.6618 30.9146 18.6618 30.9146" stroke="#263238" stroke-miterlimit="10"/>
<path d="M26.336 37.7522C26.336 37.7522 27.4652 37.8307 29.5611 37.7522C31.657 37.6737 36.8995 37.9932 37.7065 37.9932H38.5188L38.4403 39.8481C38.4403 39.8481 34.4868 40.1703 31.7464 40.5738C29.006 40.9773 26.7476 41.462 24.4892 40.3328" fill="#92E3A9"/>
<path d="M26.336 37.7522C26.336 37.7522 27.4652 37.8307 29.5611 37.7522C31.657 37.6737 36.8995 37.9932 37.7065 37.9932H38.5188L38.4403 39.8481C38.4403 39.8481 34.4868 40.1703 31.7464 40.5738C29.006 40.9773 26.7476 41.462 24.4892 40.3328" stroke="#263238" stroke-linecap="round" stroke-linejoin="round"/>
<path d="M38.5107 37.9927L38.6515 37.6651C38.8744 37.1446 39.2527 36.7057 39.7347 36.4086C40.1594 36.2844 40.5649 36.1021 40.9397 35.867L41.0074 35.8264C41.0074 35.8264 41.5111 35.9726 41.2159 36.368C41.1417 36.483 41.0387 36.5765 40.917 36.6392C40.7954 36.7019 40.6594 36.7317 40.5227 36.7254L40.1192 37.3699L42.8948 37.5947C42.8948 37.5947 43.2956 37.7544 42.9734 37.9954C42.6511 38.2364 41.0778 38.1769 41.0778 38.1769L43.079 38.5289C43.079 38.5289 43.3064 38.7564 43.2089 38.9486C43.1115 39.1409 41.0128 38.8836 41.0128 38.8836L42.7892 39.3683C42.8616 39.4233 42.9134 39.5009 42.9365 39.5887C42.9596 39.6766 42.9525 39.7697 42.9165 39.8531C42.8542 40.0155 42.467 39.9505 42.3045 39.8855C42.142 39.8206 40.9803 39.6283 40.9803 39.6283L42.272 40.3378C42.2593 40.4145 42.2279 40.487 42.1807 40.5488C42.1335 40.6106 42.0719 40.66 42.0012 40.6925C41.8108 40.7456 41.6094 40.7456 41.419 40.6925L39.7401 40.0155C39.7401 40.0155 39.6508 40.2403 38.4051 39.8693L38.5107 37.9927Z" fill="white" stroke="#263238" stroke-linecap="round" stroke-linejoin="round"/>
<path d="M40.1246 37.3485C40.1246 37.3485 40.2844 38.54 39.6697 38.7675Z" fill="white"/>
<path d="M40.1246 37.3485C40.1246 37.3485 40.2844 38.54 39.6697 38.7675" stroke="#263238" stroke-linecap="round" stroke-linejoin="round"/>
<path d="M77.3204 32.3901C77.3204 32.3901 77.2175 34.0744 76.1939 35.0303C75.1703 35.9862 68.4331 39.4686 67.8617 39.6337C67.2903 39.7989 65.1998 38.7591 66.2369 37.1127C67.2741 35.4663 72.9201 32.6988 74.1061 31.8729C75.2922 31.047 76.1668 31.3882 76.1668 31.3882" fill="#92E3A9"/>
<path d="M77.3204 32.3901C77.3204 32.3901 77.2175 34.0744 76.1939 35.0303C75.1703 35.9862 68.4331 39.4686 67.8617 39.6337C67.2903 39.7989 65.1998 38.7591 66.2369 37.1127C67.2741 35.4663 72.9201 32.6988 74.1061 31.8729C75.2922 31.047 76.1668 31.3882 76.1668 31.3882" stroke="#263238" stroke-miterlimit="10"/>
<path d="M67.2524 36.5197C67.2524 36.5197 66.1313 36.3681 64.095 35.8617C62.0587 35.3553 56.8622 34.6025 56.0715 34.4373L55.2835 34.2722L54.9829 36.1054C54.9829 36.1054 58.774 37.2265 61.3871 38.1824C64.0002 39.1383 66.1016 40.0779 68.5414 39.4253" fill="#92E3A9"/>
<path d="M67.2524 36.5197C67.2524 36.5197 66.1313 36.3681 64.095 35.8617C62.0587 35.3553 56.8622 34.6025 56.0715 34.4373L55.2835 34.2722L54.9829 36.1054C54.9829 36.1054 58.774 37.2265 61.3871 38.1824C64.0002 39.1383 66.1016 40.0779 68.5414 39.4253" stroke="#263238" stroke-linecap="round" stroke-linejoin="round"/>
<path d="M55.2835 34.2697L55.2131 33.9203C55.0987 33.3642 54.8149 32.8572 54.4007 32.4689C54.0102 32.2568 53.6504 31.9926 53.3311 31.6836L53.2769 31.6295C53.2769 31.6295 52.7516 31.6701 52.9655 32.106C53.014 32.2337 53.0954 32.3463 53.2015 32.4324C53.3075 32.5185 53.4345 32.575 53.5694 32.5962L53.8402 33.3111L51.0781 32.9644C51.0781 32.9644 50.6503 33.0403 50.9183 33.3408C51.1864 33.6414 52.7299 33.9014 52.7299 33.9014L50.699 33.8418C50.699 33.8418 50.4282 34.0151 50.4851 34.2263C50.5419 34.4376 52.6514 34.6109 52.6514 34.6109L50.8154 34.7219C50.7333 34.7605 50.6664 34.8254 50.6252 34.9063C50.584 34.9872 50.5709 35.0795 50.588 35.1687C50.6205 35.342 51.0131 35.3555 51.1837 35.3257C51.3543 35.296 52.5377 35.3447 52.5377 35.3447L51.1269 35.7753C51.1231 35.8517 51.1376 35.9279 51.1692 35.9975C51.2007 36.0672 51.2484 36.1284 51.3083 36.176C51.4835 36.2668 51.6801 36.308 51.8769 36.2952L53.6587 35.9729C53.6587 35.9729 53.7021 36.2112 54.9965 36.1029L55.2835 34.2697Z" fill="white" stroke="#263238" stroke-linecap="round" stroke-linejoin="round"/>
<path d="M53.8348 33.311C53.8348 33.311 53.4367 34.4456 53.9891 34.7922Z" fill="white"/>
<path d="M53.8348 33.311C53.8348 33.311 53.4367 34.4456 53.9891 34.7922" stroke="#263238" stroke-linecap="round" stroke-linejoin="round"/>
<path d="M55.7411 45.0147H40.3602V24.4157H51.1621L55.7411 28.6102V45.0147Z" fill="white" stroke="#263238" stroke-linecap="round" stroke-linejoin="round"/>
<path d="M51.1621 24.4157V28.6102H55.7411L51.1621 24.4157Z" fill="#263238" stroke="#263238" stroke-linecap="round" stroke-linejoin="round"/>
<path d="M57.3228 45.2091C58.8995 43.5406 58.8251 40.9098 57.1566 39.3331C55.4881 37.7563 52.8573 37.8308 51.2806 39.4993C49.7039 41.1678 49.7783 43.7985 51.4468 45.3753C53.1153 46.952 55.7461 46.8776 57.3228 45.2091Z" fill="#263238"/>
<path d="M56.5399 41.8734H54.7798V40.1159H53.8212V41.8734H52.0638V42.8347H53.8212V44.5921H54.7798V42.8347H56.5399V41.8734Z" fill="white"/>
<path d="M63.2745 68.3595H33.6798L30.2679 45.5509H63.2745V68.3595Z" fill="#263238" stroke="#263238" stroke-linecap="round" stroke-linejoin="round"/>
<path d="M47.853 45.5508L47.4089 44.2727C47.2897 43.9302 47.067 43.6334 46.7715 43.4233C46.476 43.2132 46.1224 43.1003 45.7598 43.1002H33.7855V68.3595H63.3828L66.7921 45.5508H47.853Z" fill="#92E3A9" stroke="#263238" stroke-linecap="round" stroke-linejoin="round"/>
<path d="M15.5098 79.3537C15.5098 79.3537 16.1678 80.8295 16.8231 81.3223C17.4784 81.8152 18.7187 81.7339 18.8757 82.5544C19.0328 83.3749 18.3829 83.4561 17.8088 83.4561C17.2347 83.4561 15.4286 83.4561 15.1009 83.3749C14.0661 83.0118 13.0961 82.4852 12.2278 81.8152C11.2448 81.0028 10.9984 81.0759 11.7377 79.5161C12.4769 77.9564 15.5098 79.3537 15.5098 79.3537Z" fill="#92E3A9" stroke="#263238" stroke-miterlimit="10"/>
<path d="M18.8974 82.7114C18.1013 82.8522 16.5415 83.0444 15.1686 82.7114C13.7957 82.3783 12.1737 81.1435 11.3532 80.4665C11.1826 81.1056 11.5048 81.222 12.2278 81.8205C13.097 82.4857 14.0669 83.0077 15.1009 83.3667C15.4286 83.4479 17.2348 83.4479 17.8088 83.4479C18.3829 83.4479 18.9489 83.3829 18.8974 82.7114Z" fill="white" stroke="#263238" stroke-miterlimit="10"/>
<path d="M17.9713 52.5508C17.9713 52.5508 16.8448 62.0014 15.943 64.3816C15.0413 66.7619 13.682 68.2675 13.3543 70.0682C13.0266 71.869 11.7296 79.5134 11.7296 79.5134C11.7296 79.5134 12.5419 80.3258 13.1241 80.2526C13.7063 80.1795 15.4204 80.4178 15.9133 79.5134C16.4061 78.6089 16.528 77.1467 16.6092 76.9003C16.6904 76.6538 20.1295 70.0005 20.9608 67.3739C21.7921 64.7472 24.4242 53.8993 24.343 52.586" fill="#263238"/>
<path d="M17.9713 52.5508C17.9713 52.5508 16.8448 62.0014 15.943 64.3816C15.0413 66.7619 13.682 68.2675 13.3543 70.0682C13.0266 71.869 11.7296 79.5134 11.7296 79.5134C11.7296 79.5134 12.5419 80.3258 13.1241 80.2526C13.7063 80.1795 15.4204 80.4178 15.9133 79.5134C16.4061 78.6089 16.528 77.1467 16.6092 76.9003C16.6904 76.6538 20.1295 70.0005 20.9608 67.3739C21.7921 64.7472 24.4242 53.8993 24.343 52.586" stroke="#263238" stroke-miterlimit="10"/>
<path d="M17.3701 46.0677C17.3701 46.0677 16.3655 49.022 16.7419 51.6622C17.1183 54.3024 20.0753 55.6239 22.1577 55.2448C24.2401 54.8656 24.7979 53.4223 24.7979 50.9121C24.7911 49.3587 24.6835 47.8075 24.4757 46.2681C22.1532 47.0104 19.6471 46.9397 17.3701 46.0677Z" fill="#263238" stroke="#263238" stroke-miterlimit="10"/>
<path d="M18.0633 26.8308C18.0633 26.8308 16.1678 30.3511 16.0514 33.1782C15.9349 36.0052 17.3701 46.0678 17.3701 46.0678C17.3701 46.0678 17.9361 47.1997 20.6413 47.3243C23.3465 47.4488 24.4757 46.5119 24.4757 46.5119C24.4757 46.5119 25.418 40.0996 25.418 36.7039C25.418 33.3081 22.7778 28.2796 22.7778 28.2796L18.0633 26.8308Z" fill="#92E3A9" stroke="#263238" stroke-miterlimit="10"/>
<path d="M16.6065 34.6595C16.6065 34.6595 16.7717 36.6498 19.179 36.899" stroke="#263238" stroke-linecap="round" stroke-linejoin="round"/>
<path d="M17.27 37.3134C18.1473 37.8309 19.1842 38.0082 20.1837 37.8116" stroke="#263238" stroke-linecap="round" stroke-linejoin="round"/>
<path d="M18.1825 46.1873C18.1825 46.1873 20.5871 44.1158 21.8327 42.2067" stroke="#263238" stroke-linecap="round" stroke-linejoin="round"/>
<path d="M21.5836 44.1967C21.5836 44.1967 19.5094 46.3631 18.762 46.6041" stroke="#263238" stroke-linecap="round" stroke-linejoin="round"/>
<path d="M19.4444 22.1681C19.4444 22.1681 19.3821 23.9283 19.1953 25.1224C19.0084 26.3166 18.9434 26.8203 18.9434 26.8203L22.4014 28.139C22.4014 28.139 22.0846 25.7507 22.526 24.7433C22.7747 24.2055 22.9444 23.6346 23.0296 23.0482C23.0296 23.0482 21.8977 20.2807 20.7036 20.0912C19.5094 19.9016 19.4444 22.1681 19.4444 22.1681Z" fill="white" stroke="#263238" stroke-miterlimit="10"/>
<path d="M24.1615 17.0854C24.1615 17.0854 24.7898 16.5195 23.972 14.6483C23.1542 12.7771 19.1953 12.8882 17.3078 14.5833C15.4204 16.2785 14.7922 19.3005 16.4278 21.2475C18.0634 23.1944 20.0103 23.449 21.2695 22.6935C22.5287 21.938 22.6505 20.4947 22.6505 19.9287C22.6505 19.3628 22.2119 17.979 22.8401 17.6026C23.2496 17.3597 23.6959 17.185 24.1615 17.0854Z" fill="#263238" stroke="#263238" stroke-miterlimit="10"/>
<path d="M17.6843 26.9554L23.2815 29.2192L22.9674 27.3968L17.9984 25.3199L17.6843 26.9554Z" fill="white" stroke="#263238" stroke-miterlimit="10"/>
<path d="M24.8656 81.5689C24.8656 81.5689 26.5066 82.5546 27.4083 82.9635C28.3101 83.3724 28.394 83.2911 28.394 83.8652C28.394 84.4393 28.4752 84.5232 26.9967 84.5232C25.5182 84.5232 21.2533 84.6045 20.8444 84.2768C20.4355 83.9492 24.2915 81.3225 24.8656 81.5689Z" fill="#92E3A9" stroke="#263238" stroke-miterlimit="10"/>
<path d="M26.9967 84.5226C28.3805 84.5226 28.3967 84.4495 28.394 83.981C24.1886 84.1083 22.1388 83.9486 21.1422 83.7644C20.8715 84.0163 20.7496 84.2112 20.8444 84.287C21.2668 84.6039 25.5209 84.5226 26.9967 84.5226Z" fill="white" stroke="#263238" stroke-miterlimit="10"/>
<path d="M23.9747 16.644C23.9747 16.644 21.0204 18.0277 21.0204 18.5395C21.0204 19.0513 22.2768 19.23 21.9004 19.861C21.7215 20.1738 21.5091 20.4662 21.2668 20.7329C21.2668 20.7329 21.7678 21.613 21.3291 21.7376C20.8904 21.8621 20.7008 21.8621 20.2459 21.2339C19.791 20.6057 19.3658 20.2915 19.2413 21.3612C19.1167 22.4308 19.6177 22.6176 19.9941 22.6799C20.2864 22.7147 20.5818 22.7147 20.8741 22.6799C20.8741 22.6799 21.5051 24.1882 21.9438 24.3778C22.3824 24.5673 24.5217 24.8192 24.9604 24.3155C25.3991 23.8118 25.0876 21.548 25.0876 21.548C25.0876 21.548 25.7159 21.4234 25.7159 20.8575C25.7159 20.2915 24.7112 19.4738 24.7112 19.4738C24.7112 19.4738 24.9604 19.0974 24.7735 18.2173C24.6319 17.6384 24.3585 17.1 23.9747 16.644Z" fill="white" stroke="#263238" stroke-miterlimit="10"/>
<path d="M24.0586 19.7526C24.0586 19.9502 23.9801 20.1127 23.8799 20.1127C23.7797 20.1127 23.7012 19.9502 23.7012 19.7526C23.7012 19.5549 23.7797 19.3951 23.8799 19.3951C23.9801 19.3951 24.0586 19.5549 24.0586 19.7526Z" fill="#263238"/>
<path d="M23.2625 19.1107C23.2625 19.1107 23.3546 18.5691 24.1697 18.6747" stroke="#263238" stroke-linecap="round" stroke-linejoin="round"/>
<path d="M24.3267 22.3656C24.0224 22.3392 23.7409 22.1931 23.5442 21.9594" stroke="#263238" stroke-linecap="round" stroke-linejoin="round"/>
<path d="M17.4757 52.7129C17.4757 52.7129 18.0498 58.3751 18.7864 60.8366C19.5229 63.2981 19.5256 64.3569 19.2792 66.4989C19.0328 68.6408 18.2123 70.6013 18.7864 72.57C19.3604 74.5386 20.5113 82.9629 20.5113 83.2906C20.5113 83.6182 20.4274 84.1029 20.839 84.2762C21.2506 84.4495 24.7762 82.0612 24.8602 81.5683C24.9441 81.0755 24.2861 79.5997 24.2861 78.2864C24.2861 76.973 24.695 69.288 24.695 65.5971C24.695 61.9063 25.1066 54.8468 23.7933 51.5648" fill="#263238"/>
<path d="M17.4757 52.7129C17.4757 52.7129 18.0498 58.3751 18.7864 60.8366C19.5229 63.2981 19.5256 64.3569 19.2792 66.4989C19.0328 68.6408 18.2123 70.6013 18.7864 72.57C19.3604 74.5386 20.5113 82.9629 20.5113 83.2906C20.5113 83.6182 20.4274 84.1029 20.839 84.2762C21.2506 84.4495 24.7762 82.0612 24.8602 81.5683C24.9441 81.0755 24.2861 79.5997 24.2861 78.2864C24.2861 76.973 24.695 69.288 24.695 65.5971C24.695 61.9063 25.1066 54.8468 23.7933 51.5648" stroke="#263238" stroke-miterlimit="10"/>
<path d="M17.9469 56.2875C17.9469 56.2875 18.3342 59.0415 18.7918 60.8368C19.2494 62.6321 19.7179 63.4743 19.1601 65.711C18.6022 67.9478 18.4127 68.6897 18.6916 69.8162" stroke="white" stroke-linecap="round" stroke-linejoin="round"/>
<path d="M68.1298 79.9656C68.1298 79.9656 64.772 81.0866 63.9731 81.3195C63.1743 81.5524 62.454 81.7203 63.1743 82.5191C63.8946 83.318 67.4122 83.3992 68.4493 83.3992C69.4864 83.3992 70.2094 83.957 70.4477 83.318C70.686 82.6789 70.6887 80.9188 70.6887 80.9188L68.1298 79.9656Z" fill="#92E3A9" stroke="#263238" stroke-miterlimit="10"/>
<path d="M70.5506 82.9361C69.657 82.909 67.97 82.825 65.9743 82.5678C64.9259 82.4672 63.8963 82.223 62.9144 81.8421C62.8412 82.0018 62.9144 82.2158 63.1851 82.5245C63.9055 83.3233 67.423 83.4045 68.4601 83.4045C69.4973 83.4045 70.2203 83.9624 70.4586 83.3233C70.5011 83.1973 70.5319 83.0677 70.5506 82.9361Z" fill="white" stroke="#263238" stroke-miterlimit="10"/>
<path d="M78.2817 80.7643C78.2817 80.7643 75.7227 82.6842 75.0051 83.0823C74.2875 83.4804 74.125 84.1221 74.7641 84.1221C75.4032 84.1221 80.5996 84.2819 81.3199 83.8026C82.0402 83.3233 81.0004 81.0053 81.0004 81.0053C81.0004 81.0053 79.0805 80.7643 78.2817 80.7643Z" fill="#92E3A9" stroke="#263238" stroke-miterlimit="10"/>
<path d="M81.32 83.8026C81.5231 83.6672 81.5908 83.3829 81.5691 83.0471C79.2461 83.4559 76.8843 83.6013 74.5286 83.4803C74.274 83.808 74.3255 84.1221 74.775 84.1221C75.4032 84.1221 80.5997 84.2819 81.32 83.8026Z" fill="white" stroke="#263238" stroke-miterlimit="10"/>
<path d="M72.1267 43.6606C72.1267 43.6606 68.6064 55.8895 68.4494 58.768C68.2923 61.6465 68.1298 76.9299 68.1298 77.6475V79.9654L70.6888 80.924C70.6888 80.924 71.8884 71.8769 72.1267 69.7187C72.365 67.5605 72.5275 65.1613 72.847 64.0321C73.1665 62.9029 73.8056 58.3455 74.0466 57.3978C74.2876 56.45 74.8454 52.4423 74.6857 47.8849C74.5259 43.3275 72.6872 42.5395 72.1267 43.6606Z" fill="#263238" stroke="#263238" stroke-miterlimit="10"/>
<path d="M71.7286 42.7805C71.7286 42.7805 71.8071 46.3766 71.8884 49.8941C71.9696 53.4117 71.7286 58.7679 72.5274 62.605C73.3263 66.4421 76.4431 74.7716 76.7626 76.1283C77.0821 77.485 78.2032 81.0865 78.2032 81.0865C78.2032 81.0865 79.9606 81.2462 81.0005 81.0052C81.0005 81.0052 79.9606 73.2363 79.8009 70.198C79.6411 67.1597 77.7212 62.8433 77.3231 61.8035C76.9251 60.7637 78.1328 52.4531 78.1328 52.4531C78.1328 52.4531 80.05 48.9328 79.5707 46.6961C79.2977 45.3743 78.6609 44.155 77.732 43.1758C77.732 43.1758 72.9255 43.8311 71.7286 42.7805Z" fill="#263238" stroke="#263238" stroke-miterlimit="10"/>
<path d="M71.9858 47.7929C71.9858 47.7929 71.8937 57.0323 72.2566 59.6454C72.6195 62.2585 73.0013 63.2875 73.0013 63.2875" stroke="white" stroke-linecap="round" stroke-linejoin="round"/>
<path d="M77.5614 27.5839C77.5614 27.5839 76.6028 26.8663 74.5258 28.3963C72.4489 29.9262 70.0497 34.0693 70.2094 35.6697C70.3692 37.2701 71.7286 41.9845 71.7286 42.7834C71.7286 43.5822 71.9669 43.2627 72.9255 43.5822C73.8841 43.9017 76.6028 43.8232 77.2419 43.5037C77.8809 43.1841 77.5614 41.1045 77.7212 39.347C77.8809 37.5896 78.9208 34.1506 78.8422 31.6728C78.7637 29.1951 77.8809 27.9116 77.5614 27.5839Z" fill="#92E3A9" stroke="#263238" stroke-miterlimit="10"/>
<path d="M73.6458 18.4795C73.6458 18.4795 72.6872 19.6791 72.6872 20.4779C72.6872 21.2767 72.5084 22.1027 72.0291 22.4953C71.5498 22.888 71.5661 23.2752 71.9669 23.3564L72.3676 23.4349C72.3676 23.4349 72.5924 25.1788 72.9092 25.8206C73.226 26.4624 74.3634 25.9127 74.6017 25.8206C74.8399 25.7285 74.5231 28.1386 74.5231 28.3796C74.5231 28.6206 76.9196 28.2983 77.231 28.2983C77.5424 28.2983 77.3908 25.4198 77.7103 24.5425C78.0299 23.6651 79.0643 22.544 77.7916 20.6241C76.5188 18.7042 74.3661 17.1201 73.6458 18.4795Z" fill="white" stroke="#263238" stroke-miterlimit="10"/>
<path d="M73.2964 22.0436C73.2964 22.2413 73.375 22.401 73.4752 22.401C73.5754 22.401 73.6539 22.2413 73.6539 22.0436C73.6539 21.8459 73.5754 21.6834 73.4752 21.6834C73.375 21.6834 73.2964 21.8459 73.2964 22.0436Z" fill="#263238"/>
<path d="M72.809 24.0636C72.809 24.0636 73.0798 24.375 73.6918 23.958" stroke="#263238" stroke-linecap="round" stroke-linejoin="round"/>
<path d="M73.0175 21.0416C73.0175 21.0416 73.4833 20.4703 74.0547 21.1987" stroke="#263238" stroke-linecap="round" stroke-linejoin="round"/>
<path d="M75.915 27.4428C75.915 27.4428 73.8407 28.1875 73.5076 28.6858C73.1746 29.184 72.9282 30.0126 73.4264 30.0126C73.9247 30.0126 76.0774 28.5639 76.6596 28.4366C77.2418 28.3094 76.6596 26.6954 75.915 27.4428Z" fill="white" stroke="#263238" stroke-miterlimit="10"/>
<path d="M73.6458 18.4797C73.8438 19.549 74.2807 20.5598 74.9239 21.4367C75.9638 22.7906 77.0036 22.4765 76.7626 23.603C76.5216 24.7295 74.7642 26.3109 75.4845 28.0819C76.2048 29.8528 77.8024 30.1588 78.122 30.8791C78.4415 31.5994 79.1618 31.8377 78.363 34.7162C77.5641 37.5947 76.3645 39.91 77.4017 42.6287C78.4388 45.3475 81.1602 46.0651 83.2372 45.1065C85.3142 44.1479 84.036 41.1096 84.518 39.2709C85 37.4323 89.154 35.9944 87.7134 30.8764C86.2728 25.7585 82.9177 24.4018 82.0268 22.6417C81.1359 20.8816 81.3092 17.9272 79.4705 16.7276C77.6318 15.528 75.5522 16.5679 74.8346 16.7276C74.117 16.8874 73.7135 15.6878 72.2756 16.2483C70.8377 16.8089 69.9793 19.4978 72.5464 20.0611C72.8158 19.4727 73.1881 18.9371 73.6458 18.4797Z" fill="#263238" stroke="#263238" stroke-miterlimit="10"/>
<path d="M76.2887 22.3086C76.79 22.8285 77.3903 23.2428 78.0542 23.5272C81.0329 24.8324 83.0936 26.7009 83.0936 29.8718C83.0936 33.0428 80.1149 35.1928 80.012 37.9007C79.9091 40.6087 81.412 42.6585 82.9907 41.8191C84.5694 40.9796 83.8329 39.3007 83.2615 39.3007" stroke="white" stroke-linecap="round" stroke-linejoin="round"/>
<path d="M74.8833 19.3274C74.9446 19.8864 75.1021 20.4306 75.349 20.9359" stroke="white" stroke-linecap="round" stroke-linejoin="round"/>
<path d="M84.6047 28.1713C85.2062 29.4975 85.5182 30.9366 85.5199 32.3929C85.4251 35.6586 81.5068 37.1534 81.0383 39.1139C80.6186 40.8767 81.8805 42.4717 82.9989 41.8218" stroke="white" stroke-linecap="round" stroke-linejoin="round"/>
<path d="M83.4673 26.0458C83.7308 26.4404 83.9696 26.851 84.1822 27.2752" stroke="white" stroke-linecap="round" stroke-linejoin="round"/>
<path d="M79.0805 32.3931C79.4592 31.1404 79.426 29.7993 78.9858 28.5669C78.2384 26.6063 77.3989 25.6721 77.3989 24.6458" stroke="white" stroke-linecap="round" stroke-linejoin="round"/>
<path d="M73.6458 18.4799C73.5053 18.2357 73.3052 18.031 73.0642 17.8851C72.8231 17.7393 72.549 17.657 72.2674 17.6459C71.3332 17.6459 71.4253 18.859 72.4516 19.0459" stroke="white" stroke-linecap="round" stroke-linejoin="round"/>
<path d="M18.7918 30.2319C18.7918 30.2319 17.6436 31.8728 17.89 33.5138C18.1365 35.1548 21.83 43.3598 22.2389 43.9339C22.6478 44.5079 25.3557 45.0847 25.6021 42.7857C25.8486 40.4867 22.6505 33.7603 22.1577 32.1193C21.6649 30.4783 20.5979 30.1506 20.5979 30.1506" fill="#92E3A9"/>
<path d="M18.7918 30.2319C18.7918 30.2319 17.6436 31.8728 17.89 33.5138C18.1365 35.1548 21.83 43.3598 22.2389 43.9339C22.6478 44.5079 25.3557 45.0847 25.6021 42.7857C25.8486 40.4867 22.6505 33.7603 22.1577 32.1193C21.6649 30.4783 20.5979 30.1506 20.5979 30.1506" stroke="#263238" stroke-miterlimit="10"/>
<path d="M24.9929 41.069C24.9929 41.069 27.3975 41.3749 29.0818 42.3931C30.7661 43.4113 36.1224 45.3177 36.1224 45.3177L35.7378 46.9072C35.7378 46.9072 29.8427 46.2275 27.3433 45.7672C24.844 45.3068 23.2219 45.0875 22.2985 43.7606" fill="#92E3A9"/>
<path d="M24.9929 41.069C24.9929 41.069 27.3975 41.3749 29.0818 42.3931C30.7661 43.4113 36.1224 45.3177 36.1224 45.3177L35.7378 46.9072C35.7378 46.9072 29.8427 46.2275 27.3433 45.7672C24.844 45.3068 23.2219 45.0875 22.2985 43.7606" stroke="#263238" stroke-miterlimit="10"/>
<path d="M40.9939 47.3326L38.8059 46.6475L38.8303 46.4174C38.8303 46.4174 40.696 46.7775 40.8991 46.8019C41.1022 46.8263 41.1699 46.7261 41.1699 46.5988C41.1566 46.5023 41.1118 46.4128 41.0427 46.3442L37.9827 45.2448L39.7401 44.9145C39.9947 44.7114 39.7131 44.5083 39.7131 44.5083L37.6496 44.557L36.1278 45.3179L35.7433 46.9075C35.7433 46.9075 38.5676 49.3446 38.6949 49.4231C38.8222 49.5017 38.898 49.6262 39.1011 49.4989C39.3042 49.3717 39.2284 49.2282 39.2284 49.2282L38.3266 48.3021L39.881 48.7597C40.057 48.8111 40.0841 48.8626 40.2113 48.8111C40.3386 48.7597 40.363 48.4293 40.363 48.4293L38.5541 47.5899L38.6326 47.4112C38.6326 47.4112 40.6392 47.8932 40.7637 47.8932C40.8883 47.8932 40.9668 47.8932 41.0697 47.6657C41.1019 47.611 41.112 47.546 41.0979 47.4841C41.0838 47.4222 41.0466 47.368 40.9939 47.3326Z" fill="white" stroke="#263238" stroke-linecap="round" stroke-linejoin="round"/>
<path d="M78.0813 30.9418C78.0813 30.9418 76.9711 29.401 75.4059 30.4002C73.8407 31.3995 68.165 36.6582 68.165 36.6582C68.165 36.6582 67.0168 38.0122 68.7066 39.0033C70.3963 39.9943 77.3285 33.8312 78.0786 33.3167" fill="#92E3A9"/>
<path d="M78.0813 30.9418C78.0813 30.9418 76.9711 29.401 75.4059 30.4002C73.8407 31.3995 68.165 36.6582 68.165 36.6582C68.165 36.6582 67.0168 38.0122 68.7066 39.0033C70.3963 39.9943 77.3285 33.8312 78.0786 33.3167" stroke="#263238" stroke-miterlimit="10"/>
<path d="M69.3104 36.6822C69.3104 36.6822 68.4683 36.1542 66.5538 35.8184C64.6393 35.4826 58.0618 31.8188 58.0618 31.8188L56.9786 33.1728C56.9786 33.1728 61.6064 36.5766 64.0192 38.0335C66.4319 39.4903 67.5097 39.8749 68.2841 39.7963C69.0586 39.7178 70.8648 38.0254 70.8648 38.0254" fill="#92E3A9"/>
<path d="M69.3104 36.6822C69.3104 36.6822 68.4683 36.1542 66.5538 35.8184C64.6393 35.4826 58.0618 31.8188 58.0618 31.8188L56.9786 33.1728C56.9786 33.1728 61.6064 36.5766 64.0192 38.0335C66.4319 39.4903 67.5097 39.8749 68.2841 39.7963C69.0586 39.7178 70.8648 38.0254 70.8648 38.0254" stroke="#263238" stroke-miterlimit="10"/>
<path d="M53.5206 28.8865L55.2699 30.2811L55.4405 30.1375C55.4405 30.1375 54.1353 28.8269 54.0053 28.6753C53.8754 28.5236 53.9133 28.4045 54.0053 28.3368C54.0897 28.2971 54.1844 28.2848 54.2761 28.3016L56.827 30.1782L56.1392 28.5778C56.1663 28.261 56.4831 28.3774 56.4831 28.3774L57.5662 30.0725L57.902 31.7406L57.0626 33.2489C57.0626 33.2489 53.1984 31.9356 53.0684 31.876C52.9384 31.8164 52.7976 31.8218 52.7841 31.5863C52.7705 31.3507 52.9411 31.3317 52.9411 31.3317L54.1814 31.5727L52.9791 30.5627C52.8409 30.4462 52.7868 30.4544 52.757 30.3217C52.7272 30.189 52.9845 29.9913 52.9845 29.9913L54.6471 30.9959L54.75 30.8362C54.75 30.8362 53.2634 29.4822 53.193 29.3712C53.1226 29.2602 53.082 29.206 53.2119 29.0002C53.2389 28.9452 53.286 28.9027 53.3435 28.8815C53.401 28.8604 53.4644 28.8621 53.5206 28.8865Z" fill="white" stroke="#263238" stroke-linecap="round" stroke-linejoin="round"/>
</svg>
