<svg width="32" height="32" viewBox="0 0 32 32" fill="none" xmlns="http://www.w3.org/2000/svg">
<path d="M11.3949 14.0051C11.0316 14.0051 10.7594 13.8444 10.5782 13.523C10.3971 13.2016 10.4099 12.8841 10.6167 12.5704L15.2808 5.04232C15.4422 4.75088 15.6979 4.60687 16.048 4.61029C16.3981 4.61369 16.668 4.76326 16.8577 5.05899L21.5051 12.5704C21.7034 12.8841 21.7099 13.2016 21.5246 13.523C21.3393 13.8444 21.0691 14.0051 20.714 14.0051H11.3949ZM23.475 28.7589C21.9771 28.7589 20.7227 28.251 19.7116 27.2352C18.7005 26.2194 18.1949 24.9626 18.1949 23.4647C18.1949 21.9669 18.7007 20.7124 19.7122 19.7013C20.7237 18.6901 21.9784 18.1846 23.4762 18.1846C24.9741 18.1846 26.2307 18.6903 27.2461 19.7019C28.2615 20.7134 28.7692 21.9681 28.7692 23.466C28.7692 24.9638 28.2613 26.2204 27.2455 27.2358C26.2298 28.2512 24.9729 28.7589 23.475 28.7589ZM5.55343 27.964C5.27843 27.964 5.05505 27.8776 4.8833 27.7047C4.71154 27.5318 4.62566 27.3078 4.62566 27.0328V19.7559C4.62566 19.4893 4.71212 19.268 4.88503 19.0921C5.05792 18.9161 5.28186 18.8282 5.55686 18.8282H12.8338C13.1088 18.8282 13.3321 18.9167 13.5039 19.0938C13.6756 19.2709 13.7615 19.4927 13.7615 19.7594V27.0363C13.7615 27.3113 13.6751 27.5346 13.5022 27.7064C13.3293 27.8781 13.1053 27.964 12.8303 27.964H5.55343ZM23.4845 27.2974C24.5495 27.2974 25.453 26.9256 26.1949 26.1821C26.9368 25.4386 27.3077 24.5322 27.3077 23.4629C27.3077 22.3936 26.9359 21.4901 26.1924 20.7525C25.4489 20.0149 24.5425 19.6461 23.4732 19.6461C22.4039 19.6461 21.5004 20.0161 20.7628 20.7563C20.0252 21.4963 19.6564 22.4023 19.6564 23.4742C19.6564 24.5392 20.0265 25.4427 20.7666 26.1846C21.5067 26.9264 22.4126 27.2974 23.4845 27.2974ZM6.08716 26.5025H12.3V20.2897H6.08716V26.5025ZM12.3333 12.5436H19.7718L16.0513 6.57432L12.3333 12.5436Z" fill="#5C5C5C"/>
</svg>
