<svg width="32" height="32" viewBox="0 0 32 32" fill="none" xmlns="http://www.w3.org/2000/svg">
<path d="M11.6385 8.52571V6.01281C11.6385 5.52212 11.8244 5.08793 12.1962 4.71024C12.5681 4.33253 13.0052 4.14368 13.5076 4.14368H18.4924C18.9831 4.14368 19.4173 4.33253 19.795 4.71024C20.1727 5.08793 20.3615 5.52212 20.3615 6.01281V8.52571H26.6923C27.1965 8.52571 27.6345 8.71718 28.0063 9.10011C28.3782 9.48304 28.5641 9.91462 28.5641 10.3948V25.3718C28.5641 25.8626 28.3782 26.2968 28.0063 26.6744C27.6345 27.0521 27.1974 27.241 26.6951 27.241H5.30494C4.81434 27.241 4.38019 27.0521 4.0025 26.6744C3.62479 26.2968 3.43594 25.8626 3.43594 25.3718V10.3948C3.43594 9.91462 3.62479 9.48304 4.0025 9.10011C4.38019 8.71718 4.81527 8.52571 5.30774 8.52571H11.6385ZM13.1 8.52571H18.9V6.01548C18.9 5.9129 18.8573 5.81888 18.7718 5.73341C18.6863 5.64794 18.5923 5.60521 18.4897 5.60521H13.5103C13.4077 5.60521 13.3137 5.64794 13.2282 5.73341C13.1427 5.81888 13.1 5.9129 13.1 6.01548V8.52571ZM27.1026 19.3718H18.5782V20.2622C18.5782 20.5326 18.4894 20.7543 18.3117 20.9274C18.1341 21.1006 17.9122 21.1872 17.6459 21.1872H14.409C14.1399 21.1872 13.9188 21.0992 13.7456 20.9233C13.5725 20.7474 13.4859 20.5251 13.4859 20.2564V19.3718H4.89744V25.3692C4.89744 25.4718 4.94018 25.5658 5.02567 25.6513C5.11114 25.7367 5.20516 25.7795 5.30774 25.7795H26.6923C26.7948 25.7795 26.8889 25.7367 26.9743 25.6513C27.0598 25.5658 27.1026 25.4718 27.1026 25.3692V19.3718ZM14.9474 19.7256H17.1167V17.5564H14.9474V19.7256ZM4.89744 17.9103H13.4859V17.0196C13.4859 16.7409 13.574 16.5171 13.7502 16.3482C13.9265 16.1793 14.1491 16.0949 14.4182 16.0949H17.6649C17.9204 16.0949 18.1365 16.1808 18.3132 16.3525C18.4898 16.5243 18.5782 16.7487 18.5782 17.0257V17.9103H27.1026V10.3975C27.1026 10.2949 27.0598 10.2009 26.9743 10.1154C26.8889 10.0299 26.7948 9.98721 26.6923 9.98721H5.30774C5.20516 9.98721 5.11114 10.0299 5.02567 10.1154C4.94018 10.2009 4.89744 10.2949 4.89744 10.3975V17.9103Z" fill="#5C5C5C"/>
</svg>
