<svg width="20" height="21" viewBox="0 0 20 21" fill="none" xmlns="http://www.w3.org/2000/svg">
<path d="M19.8689 10.478C19.8698 9.79661 19.8117 9.11637 19.6955 8.4448H10.1997V12.296H15.6385C15.5272 12.9111 15.2916 13.4974 14.946 14.0197C14.6004 14.5419 14.1518 14.9893 13.6274 15.3347V17.8346H16.8733C18.7739 16.0944 19.8689 13.5209 19.8689 10.478Z" fill="#4285F4"/>
<path d="M10.1998 20.25C12.9171 20.25 15.205 19.3639 16.8734 17.8362L13.6275 15.3364C12.7241 15.9447 11.5605 16.2919 10.1998 16.2919C7.5734 16.2919 5.3442 14.5336 4.54705 12.1643H1.20325V14.7406C2.04132 16.3967 3.32641 17.7889 4.91506 18.7618C6.5037 19.7347 8.33336 20.2499 10.1998 20.25V20.25Z" fill="#34A853"/>
<path d="M4.54698 12.164C4.12556 10.9224 4.12556 9.57792 4.54698 8.33638V5.76012H1.20317C0.498154 7.15332 0.130981 8.69094 0.130981 10.2502C0.130981 11.8094 0.498154 13.347 1.20317 14.7402L4.54698 12.164Z" fill="#FBBC04"/>
<path d="M10.1998 4.20879C11.6357 4.18549 13.0233 4.72429 14.0624 5.70872L16.9363 2.85469C15.114 1.15488 12.6998 0.221659 10.1998 0.250656C8.33336 0.250741 6.5037 0.765984 4.91506 1.73886C3.32641 2.71174 2.04132 4.10397 1.20325 5.7601L4.54705 8.33636C5.3442 5.96704 7.5734 4.20879 10.1998 4.20879Z" fill="#EA4335"/>
</svg>
