<svg width="24" height="24" viewBox="0 0 24 24" fill="none" xmlns="http://www.w3.org/2000/svg">
<circle cx="12" cy="12" r="8" fill="#4267B2" stroke="white" stroke-width="2"/>
<mask id="path-2-inside-1_67_550" fill="white">
<path fill-rule="evenodd" clip-rule="evenodd" d="M15.3333 5.33331H13.3333C11.4924 5.33331 10 6.8257 10 8.66665V10.6666H8V13.3333H10V18.6666H12.6667V13.3333H14.6667L15.3333 10.6666H12.6667V8.66665C12.6667 8.29846 12.9651 7.99998 13.3333 7.99998H15.3333V5.33331Z"/>
</mask>
<path d="M15.3333 5.33331H25.3333C25.3333 -0.189535 20.8562 -4.66669 15.3333 -4.66669L15.3333 5.33331ZM10 10.6666V20.6666C15.5228 20.6666 20 16.1895 20 10.6666L10 10.6666ZM8 10.6666V0.666646C2.47715 0.666646 -2 5.1438 -2 10.6666L8 10.6666ZM8 13.3333H-2C-2 18.8562 2.47715 23.3333 8 23.3333L8 13.3333ZM10 13.3333H20C20 7.81047 15.5228 3.33331 10 3.33331L10 13.3333ZM10 18.6666H-1.19209e-07C-1.19209e-07 24.1895 4.47715 28.6666 10 28.6666L10 18.6666ZM12.6667 18.6666V28.6666C18.1895 28.6666 22.6667 24.1895 22.6667 18.6666H12.6667ZM12.6667 13.3333V3.33331C7.14382 3.33331 2.66667 7.81047 2.66667 13.3333L12.6667 13.3333ZM14.6667 13.3333V23.3333C19.2553 23.3333 23.2552 20.2103 24.3681 15.7587L14.6667 13.3333ZM15.3333 10.6666L25.0348 13.092C25.7816 10.1046 25.1105 6.93969 23.2154 4.51252C21.3203 2.08536 18.4127 0.666646 15.3333 0.666646L15.3333 10.6666ZM12.6667 10.6666H2.66667C2.66667 16.1895 7.14382 20.6666 12.6667 20.6666L12.6667 10.6666ZM15.3333 7.99998V18C20.8562 18 25.3333 13.5228 25.3333 7.99998L15.3333 7.99998ZM15.3333 -4.66669H13.3333V15.3333H15.3333V-4.66669ZM13.3333 -4.66669C5.96954 -4.66669 -1.19209e-07 1.30285 -1.19209e-07 8.66665H20C20 12.3485 17.0152 15.3333 13.3333 15.3333L13.3333 -4.66669ZM-1.19209e-07 8.66665V10.6666H20V8.66665H-1.19209e-07ZM10 0.666646H8V20.6666H10V0.666646ZM-2 10.6666V13.3333H18V10.6666H-2ZM8 23.3333H10V3.33331H8V23.3333ZM-1.19209e-07 13.3333V18.6666H20V13.3333H-1.19209e-07ZM10 28.6666H12.6667V8.66665H10V28.6666ZM22.6667 18.6666V13.3333H2.66667V18.6666H22.6667ZM12.6667 23.3333H14.6667V3.33331H12.6667V23.3333ZM24.3681 15.7587L25.0348 13.092L5.63191 8.24129L4.96524 10.908L24.3681 15.7587ZM15.3333 0.666646H12.6667V20.6666H15.3333V0.666646ZM22.6667 10.6666V8.66665H2.66667V10.6666H22.6667ZM22.6667 8.66665C22.6667 13.8213 18.488 18 13.3333 18V-2.00002C7.44229 -2.00002 2.66667 2.77561 2.66667 8.66665H22.6667ZM13.3333 18H15.3333V-2.00002H13.3333V18ZM25.3333 7.99998V5.33331H5.33333V7.99998H25.3333Z" fill="#333333" mask="url(#path-2-inside-1_67_550)"/>
</svg>
