<svg width="24" height="24" viewBox="0 0 24 24" fill="none" xmlns="http://www.w3.org/2000/svg">
<circle cx="12" cy="12" r="8" fill="#4267B2" stroke="white" stroke-width="2"/>
<mask id="path-2-inside-1_67_403" fill="white">
<path fill-rule="evenodd" clip-rule="evenodd" d="M15.3333 5.33334H13.3333C11.4924 5.33334 10 6.82573 10 8.66668V10.6667H8V13.3333H10V18.6667H12.6667V13.3333H14.6667L15.3333 10.6667H12.6667V8.66668C12.6667 8.29849 12.9651 8.00001 13.3333 8.00001H15.3333V5.33334Z"/>
</mask>
<path d="M15.3333 5.33334H25.3333C25.3333 -0.189504 20.8562 -4.66666 15.3333 -4.66666L15.3333 5.33334ZM10 10.6667V20.6667C15.5228 20.6667 20 16.1895 20 10.6667L10 10.6667ZM8 10.6667V0.666677C2.47715 0.666677 -2 5.14383 -2 10.6667L8 10.6667ZM8 13.3333H-2C-2 18.8562 2.47715 23.3333 8 23.3333L8 13.3333ZM10 13.3333H20C20 7.8105 15.5228 3.33334 10 3.33334L10 13.3333ZM10 18.6667H-1.19209e-07C-1.19209e-07 24.1895 4.47715 28.6667 10 28.6667L10 18.6667ZM12.6667 18.6667V28.6667C18.1895 28.6667 22.6667 24.1895 22.6667 18.6667H12.6667ZM12.6667 13.3333V3.33334C7.14382 3.33334 2.66667 7.8105 2.66667 13.3333L12.6667 13.3333ZM14.6667 13.3333V23.3333C19.2553 23.3333 23.2552 20.2104 24.3681 15.7587L14.6667 13.3333ZM15.3333 10.6667L25.0348 13.092C25.7816 10.1046 25.1105 6.93972 23.2154 4.51255C21.3203 2.08539 18.4127 0.666677 15.3333 0.666677L15.3333 10.6667ZM12.6667 10.6667H2.66667C2.66667 16.1895 7.14382 20.6667 12.6667 20.6667L12.6667 10.6667ZM15.3333 8.00001V18C20.8562 18 25.3333 13.5229 25.3333 8.00001L15.3333 8.00001ZM15.3333 -4.66666H13.3333V15.3333H15.3333V-4.66666ZM13.3333 -4.66666C5.96954 -4.66666 -1.19209e-07 1.30288 -1.19209e-07 8.66668H20C20 12.3486 17.0152 15.3333 13.3333 15.3333L13.3333 -4.66666ZM-1.19209e-07 8.66668V10.6667H20V8.66668H-1.19209e-07ZM10 0.666677H8V20.6667H10V0.666677ZM-2 10.6667V13.3333H18V10.6667H-2ZM8 23.3333H10V3.33334H8V23.3333ZM-1.19209e-07 13.3333V18.6667H20V13.3333H-1.19209e-07ZM10 28.6667H12.6667V8.66668H10V28.6667ZM22.6667 18.6667V13.3333H2.66667V18.6667H22.6667ZM12.6667 23.3333H14.6667V3.33334H12.6667V23.3333ZM24.3681 15.7587L25.0348 13.092L5.63191 8.24132L4.96524 10.908L24.3681 15.7587ZM15.3333 0.666677H12.6667V20.6667H15.3333V0.666677ZM22.6667 10.6667V8.66668H2.66667V10.6667H22.6667ZM22.6667 8.66668C22.6667 13.8213 18.488 18 13.3333 18V-1.99999C7.44229 -1.99999 2.66667 2.77564 2.66667 8.66668H22.6667ZM13.3333 18H15.3333V-1.99999H13.3333V18ZM25.3333 8.00001V5.33334H5.33333V8.00001H25.3333Z" fill="#333333" mask="url(#path-2-inside-1_67_403)"/>
</svg>
